<svg fill="none" height="1381" viewBox="0 0 1876 1381" width="1876" xmlns="http://www.w3.org/2000/svg"><path d="m1203.4 1380.6h-530.9c-8.1 0-14.8-6.6-14.8-14.8v-31.5c0-8.1 6.6-14.8 14.8-14.8h530.9c8.1 0 14.8 6.6 14.8 14.8v31.5c-.1 8.2-6.7 14.8-14.8 14.8z" fill="#978cff"/><path d="m1043.8 1380.6h-211.7c-6.3 0-11.5-5.2-11.5-11.5v-247.8c0-6.3 5.2-11.5 11.5-11.5h211.7c6.3 0 11.5 5.2 11.5 11.5v247.8c0 6.3-5.2 11.5-11.5 11.5z" fill="#978cff"/><path d="m1844.1 1191.6h-1812.2999c-17.4 0-31.700002-14.3-31.700002-31.7v-1127.7c0-17.4 14.300002-31.7 31.700002-31.7h1812.2999c17.4 0 31.7 14.3 31.7 31.7v1127.7c0 17.5-14.3 31.7-31.7 31.7z" fill="#a7adff"/><path d="m89.7002 28.2998c-32.5 0-59 26.6-59 59v381.1002c185.6998-149.1 374.1998-295.6 564.3998-440.1002z" fill="#eff0fc"/><path d="m1779 28.2998h-168.6-1015.3c-190.3 144.6002-378.7 291.0002-564.3998 440.1002v400.1 144.1c0 32.5 26.6 59 59 59h1689.2998c32.5 0 59-26.6 59-59v-925.3002c0-32.5-26.6-59-59-59z" fill="#e3e5fc"/><path d="m934.3 1140.2c9.002 0 16.3-7.3 16.3-16.3s-7.298-16.3-16.3-16.3-16.3 7.3-16.3 16.3 7.298 16.3 16.3 16.3z" fill="#4b369d"/></svg>